<svg width="850" height="850" viewBox="0 0 850 850" fill="none" xmlns="http://www.w3.org/2000/svg">
<path d="M56.2841 268.744C51.7089 254.552 59.5053 239.338 73.6977 234.762L559.099 78.284C573.292 73.7088 588.506 81.5051 593.081 95.6976L758.15 607.748C762.726 621.941 754.929 637.155 740.737 641.73L255.335 798.209C241.143 802.784 225.929 794.988 221.354 780.795L56.2841 268.744Z" fill="#F9A825"/>
<path d="M56.5802 476.641C30.2729 449.62 17.1192 436.109 17.341 419.542C17.5628 402.975 31.0734 389.822 58.0947 363.514L373.359 56.5801C400.38 30.2728 413.89 17.1192 430.458 17.341C447.025 17.5628 460.178 31.0734 486.486 58.0946L793.42 373.359C819.727 400.38 832.881 413.89 832.659 430.458C832.437 447.025 818.927 460.178 791.905 486.486L476.641 793.42C449.62 819.727 436.11 832.881 419.542 832.659C402.975 832.437 389.822 818.927 363.514 791.905L56.5802 476.641Z" fill="#039BE5" fill-opacity="0.9"/>
</svg>
